<svg xmlns="http://www.w3.org/2000/svg" viewBox="0 0 32 32" fill="none">
  <rect width="32" height="32" rx="16" fill="#103138"/>
  <path d="M11.9401 22.0889C4.78483 22.0889 0.263385 17.8308 0 11.2901H6.32125C6.58463 14.4068 8.56002 16.3822 11.9401 16.3822C14.8813 16.3822 16.8128 15.153 16.8128 12.8265C16.8128 6.7247 0.790156 11.5534 0.790156 -0.51839C0.790156 -5.7422 5.26771 -9.3418 11.5451 -9.3418C18.1736 -9.3418 22.6072 -5.5227 22.7828 0.315704H16.5494C16.286 -2.0987 14.4423 -3.6791 11.5451 -3.6791C8.9112 -3.6791 7.28699 -2.4499 7.28699 -0.51839C7.28699 5.8468 23.4413 0.447398 23.4413 12.7387C23.4413 18.4893 18.8321 22.0889 11.9401 22.0889Z" fill="#20E28F" transform="translate(4, 5)"/>
</svg> 